<svg id="svg" version="1.1" width="400" height="660.5504587155964" viewBox="0 0 400 660.5504587155964" xmlns="http://www.w3.org/2000/svg" xmlns:xlink="http://www.w3.org/1999/xlink" ><g id="svgg"><path id="path0" d="M150.300 227.900 L 150.200 455.800 75.100 455.901 C 25.630 455.968,0.000 456.138,0.000 456.400 C 0.000 456.662,25.698 456.833,75.300 456.900 L 150.600 457.002 75.288 457.101 L -0.025 457.200 0.031 461.131 C 0.091 465.406,0.588 466.336,2.525 465.793 C 3.214 465.600,3.272 465.637,2.800 465.965 C 2.101 466.452,13.817 478.144,14.680 477.821 C 14.983 477.707,15.068 477.879,14.910 478.290 C 14.726 478.770,14.830 478.874,15.310 478.690 C 15.783 478.508,15.894 478.611,15.719 479.067 C 15.527 479.566,15.672 479.638,16.439 479.420 C 17.106 479.231,17.231 479.264,16.849 479.529 C 16.220 479.964,16.576 480.800,17.390 480.800 C 17.689 480.800,18.014 480.575,18.112 480.300 C 18.210 480.025,18.445 479.945,18.634 480.122 C 18.822 480.299,18.712 480.615,18.388 480.824 C 17.919 481.128,18.478 481.847,21.145 484.373 C 22.985 486.115,25.903 488.919,27.629 490.604 C 29.356 492.289,30.953 493.553,31.179 493.413 C 31.430 493.258,31.491 493.419,31.335 493.825 C 31.125 494.372,31.252 494.443,32.039 494.220 C 32.694 494.034,32.827 494.067,32.457 494.324 C 31.693 494.854,32.557 495.322,33.704 495.000 C 34.342 494.820,34.441 494.858,34.047 495.130 C 33.303 495.645,33.647 496.076,38.604 500.840 C 46.301 508.236,46.057 508.034,46.957 507.783 C 47.639 507.592,47.685 507.630,47.200 507.981 C 46.406 508.556,47.673 509.597,49.176 509.606 C 49.984 509.611,50.074 509.694,49.600 510.000 C 48.891 510.459,60.629 522.151,61.473 521.827 C 61.779 521.710,61.870 521.873,61.719 522.267 C 61.529 522.762,61.680 522.842,62.439 522.650 C 62.968 522.516,63.175 522.511,62.900 522.637 C 61.927 523.084,62.417 523.577,63.600 523.340 C 64.772 523.106,65.357 523.751,64.300 524.112 C 64.025 524.206,64.205 524.216,64.700 524.134 C 65.644 523.977,65.963 524.601,65.100 524.916 C 64.814 525.021,66.826 527.270,69.800 530.170 C 77.560 537.738,77.626 537.794,78.071 537.151 C 78.341 536.761,78.379 536.863,78.199 537.500 C 78.060 537.995,78.120 538.400,78.332 538.400 C 78.544 538.400,81.236 540.837,84.314 543.815 C 91.287 550.562,92.084 551.248,92.680 551.023 C 92.947 550.921,93.071 551.069,92.961 551.357 C 92.852 551.641,93.536 552.510,94.482 553.289 C 95.427 554.068,98.790 557.256,101.955 560.374 C 105.267 563.637,107.933 565.958,108.235 565.842 C 108.580 565.710,108.677 565.855,108.519 566.267 C 108.333 566.752,108.464 566.833,109.107 566.629 C 109.744 566.427,110.000 566.578,110.214 567.283 C 110.462 568.101,113.173 570.897,120.123 577.500 C 121.699 578.998,122.544 579.532,123.067 579.363 C 123.670 579.167,123.694 579.199,123.203 579.546 C 122.718 579.888,122.702 580.062,123.120 580.480 C 123.538 580.898,123.710 580.882,124.043 580.397 C 124.358 579.937,124.394 580.007,124.199 580.700 C 124.015 581.354,124.115 581.600,124.563 581.600 C 124.903 581.600,125.770 582.249,126.490 583.042 C 131.366 588.409,138.811 595.276,139.480 595.023 C 139.743 594.923,139.876 595.059,139.773 595.326 C 139.671 595.593,140.535 596.660,141.694 597.699 C 142.852 598.738,146.219 601.936,149.175 604.808 C 152.131 607.679,154.777 609.941,155.055 609.834 C 155.383 609.709,155.473 609.865,155.314 610.280 C 155.111 610.809,155.270 610.873,156.234 610.648 C 157.095 610.447,157.243 610.483,156.800 610.787 C 155.913 611.395,168.618 623.696,169.796 623.370 C 170.438 623.193,170.480 623.230,170.003 623.557 C 169.500 623.903,169.492 624.047,169.953 624.483 C 170.386 624.893,170.538 624.896,170.683 624.500 C 170.784 624.225,171.068 624.000,171.313 624.000 C 171.624 624.000,171.614 624.146,171.280 624.480 C 170.473 625.287,170.742 625.700,171.900 625.431 C 172.729 625.239,172.852 625.278,172.400 625.591 C 171.902 625.935,172.140 626.323,173.800 627.871 C 174.900 628.898,177.800 631.690,180.245 634.077 C 183.652 637.403,184.866 638.360,185.445 638.171 C 186.004 637.988,186.059 638.025,185.657 638.312 C 184.945 638.821,185.690 639.294,186.633 638.932 C 187.186 638.720,187.281 638.812,187.072 639.357 C 186.858 639.914,186.964 640.002,187.603 639.799 C 188.041 639.660,188.400 639.723,188.400 639.940 C 188.400 640.156,188.220 640.393,188.000 640.467 C 187.660 640.580,190.427 644.000,190.858 644.000 C 190.941 644.000,193.324 646.255,196.155 649.011 C 200.317 653.062,201.465 653.976,202.151 653.785 C 202.795 653.605,202.861 653.644,202.423 653.945 C 201.957 654.266,202.218 654.675,203.776 656.071 C 204.837 657.022,206.313 658.392,207.055 659.116 L 208.405 660.432 212.403 660.369 C 214.601 660.335,216.400 660.185,216.400 660.036 C 216.400 659.888,218.664 657.434,221.432 654.583 C 225.773 650.111,229.691 645.938,232.307 643.000 C 232.699 642.560,235.500 639.611,238.532 636.447 C 241.988 632.841,243.964 630.482,243.827 630.126 C 243.707 629.814,243.786 629.668,244.002 629.801 C 244.217 629.934,245.340 629.033,246.497 627.799 C 247.654 626.564,250.400 623.714,252.600 621.465 C 254.800 619.216,257.972 615.852,259.649 613.988 C 261.325 612.125,263.845 609.418,265.249 607.973 C 271.006 602.044,271.041 602.000,270.397 601.546 C 269.914 601.205,269.947 601.173,270.569 601.376 C 271.269 601.605,274.400 599.167,274.400 598.393 C 274.400 598.258,276.302 596.180,278.626 593.774 C 285.772 586.378,286.499 585.513,285.919 585.109 C 285.581 584.874,285.728 584.840,286.339 585.013 C 287.171 585.249,287.252 585.171,287.043 584.339 C 286.913 583.823,286.911 583.625,287.037 583.900 C 287.519 584.949,288.096 584.381,287.851 583.100 C 287.697 582.300,287.735 582.008,287.950 582.342 C 288.386 583.019,289.799 582.186,291.310 580.362 C 291.858 579.700,294.236 577.175,296.596 574.749 C 298.955 572.324,301.751 569.318,302.808 568.070 C 303.866 566.821,307.182 563.289,310.178 560.219 C 313.173 557.150,315.537 554.414,315.432 554.139 C 315.322 553.853,315.461 553.725,315.757 553.839 C 316.041 553.948,316.908 553.264,317.683 552.318 C 318.459 551.373,320.872 548.780,323.047 546.555 C 325.221 544.330,328.222 541.180,329.715 539.555 C 334.655 534.177,335.366 533.418,339.731 528.860 C 342.531 525.937,343.982 524.130,343.836 523.748 C 343.702 523.401,343.780 523.264,344.024 523.415 C 344.253 523.556,345.945 522.080,347.786 520.136 C 349.627 518.191,352.858 514.827,354.966 512.659 C 358.896 508.620,359.163 508.233,358.300 507.837 C 358.025 507.711,358.180 507.700,358.644 507.813 C 359.281 507.968,359.835 507.599,360.903 506.309 C 361.681 505.369,364.409 502.444,366.967 499.809 C 369.524 497.174,371.532 494.799,371.428 494.530 C 371.310 494.221,371.472 494.129,371.867 494.281 C 372.366 494.473,372.438 494.328,372.220 493.561 C 372.012 492.827,372.046 492.742,372.363 493.200 C 372.705 493.693,373.227 493.300,375.285 491.000 C 376.663 489.460,379.682 486.246,381.995 483.857 C 384.308 481.468,386.424 479.277,386.699 478.987 C 386.973 478.697,387.091 478.131,386.961 477.730 C 386.765 477.124,386.797 477.102,387.151 477.600 C 387.520 478.120,387.654 478.093,388.150 477.400 C 388.767 476.538,390.435 474.755,396.209 468.781 L 399.901 464.963 399.967 461.083 L 400.032 457.202 337.316 457.100 L 274.600 456.997 337.300 456.899 C 378.768 456.833,400.000 456.665,400.000 456.400 C 400.000 456.135,379.188 455.977,338.500 455.932 C 304.675 455.894,276.730 455.823,276.400 455.774 C 276.070 455.725,275.575 455.666,275.300 455.643 C 274.901 455.609,274.800 409.751,274.800 227.800 L 274.800 0.000 213.400 -0.000 L 152.001 -0.000 151.900 228.100 L 151.799 456.200 151.700 228.100 C 151.611 25.714,151.532 -0.000,151.000 -0.000 C 150.468 -0.000,150.389 25.692,150.300 227.900 " stroke="none" fill="#000000" fill-rule="evenodd"></path><path id="path1" d="M150.300 227.900 L 150.200 455.800 75.100 455.901 C 25.630 455.968,0.000 456.138,0.000 456.400 C 0.000 456.662,25.698 456.833,75.300 456.900 L 150.600 457.002 75.288 457.101 L -0.025 457.200 0.031 461.131 C 0.091 465.406,0.588 466.336,2.525 465.793 C 3.214 465.600,3.272 465.637,2.800 465.965 C 2.101 466.452,13.817 478.144,14.680 477.821 C 14.983 477.707,15.068 477.879,14.910 478.290 C 14.726 478.770,14.830 478.874,15.310 478.690 C 15.783 478.508,15.894 478.611,15.719 479.067 C 15.527 479.566,15.672 479.638,16.439 479.420 C 17.106 479.231,17.231 479.264,16.849 479.529 C 16.220 479.964,16.576 480.800,17.390 480.800 C 17.689 480.800,18.014 480.575,18.112 480.300 C 18.210 480.025,18.445 479.945,18.634 480.122 C 18.822 480.299,18.712 480.615,18.388 480.824 C 17.919 481.128,18.478 481.847,21.145 484.373 C 22.985 486.115,25.903 488.919,27.629 490.604 C 29.356 492.289,30.953 493.553,31.179 493.413 C 31.430 493.258,31.491 493.419,31.335 493.825 C 31.125 494.372,31.252 494.443,32.039 494.220 C 32.694 494.034,32.827 494.067,32.457 494.324 C 31.693 494.854,32.557 495.322,33.704 495.000 C 34.342 494.820,34.441 494.858,34.047 495.130 C 33.303 495.645,33.647 496.076,38.604 500.840 C 46.301 508.236,46.057 508.034,46.957 507.783 C 47.639 507.592,47.685 507.630,47.200 507.981 C 46.406 508.556,47.673 509.597,49.176 509.606 C 49.984 509.611,50.074 509.694,49.600 510.000 C 48.891 510.459,60.629 522.151,61.473 521.827 C 61.779 521.710,61.870 521.873,61.719 522.267 C 61.529 522.762,61.680 522.842,62.439 522.650 C 62.968 522.516,63.175 522.511,62.900 522.637 C 61.927 523.084,62.417 523.577,63.600 523.340 C 64.772 523.106,65.357 523.751,64.300 524.112 C 64.025 524.206,64.205 524.216,64.700 524.134 C 65.644 523.977,65.963 524.601,65.100 524.916 C 64.814 525.021,66.826 527.270,69.800 530.170 C 77.560 537.738,77.626 537.794,78.071 537.151 C 78.341 536.761,78.379 536.863,78.199 537.500 C 78.060 537.995,78.120 538.400,78.332 538.400 C 78.544 538.400,81.236 540.837,84.314 543.815 C 91.287 550.562,92.084 551.248,92.680 551.023 C 92.947 550.921,93.071 551.069,92.961 551.357 C 92.852 551.641,93.536 552.510,94.482 553.289 C 95.427 554.068,98.790 557.256,101.955 560.374 C 105.267 563.637,107.933 565.958,108.235 565.842 C 108.580 565.710,108.677 565.855,108.519 566.267 C 108.333 566.752,108.464 566.833,109.107 566.629 C 109.744 566.427,110.000 566.578,110.214 567.283 C 110.462 568.101,113.173 570.897,120.123 577.500 C 121.699 578.998,122.544 579.532,123.067 579.363 C 123.670 579.167,123.694 579.199,123.203 579.546 C 122.718 579.888,122.702 580.062,123.120 580.480 C 123.538 580.898,123.710 580.882,124.043 580.397 C 124.358 579.937,124.394 580.007,124.199 580.700 C 124.015 581.354,124.115 581.600,124.563 581.600 C 124.903 581.600,125.770 582.249,126.490 583.042 C 131.366 588.409,138.811 595.276,139.480 595.023 C 139.743 594.923,139.876 595.059,139.773 595.326 C 139.671 595.593,140.535 596.660,141.694 597.699 C 142.852 598.738,146.219 601.936,149.175 604.808 C 152.131 607.679,154.777 609.941,155.055 609.834 C 155.383 609.709,155.473 609.865,155.314 610.280 C 155.111 610.809,155.270 610.873,156.234 610.648 C 157.095 610.447,157.243 610.483,156.800 610.787 C 155.913 611.395,168.618 623.696,169.796 623.370 C 170.438 623.193,170.480 623.230,170.003 623.557 C 169.500 623.903,169.492 624.047,169.953 624.483 C 170.386 624.893,170.538 624.896,170.683 624.500 C 170.784 624.225,171.068 624.000,171.313 624.000 C 171.624 624.000,171.614 624.146,171.280 624.480 C 170.473 625.287,170.742 625.700,171.900 625.431 C 172.729 625.239,172.852 625.278,172.400 625.591 C 171.902 625.935,172.140 626.323,173.800 627.871 C 174.900 628.898,177.800 631.690,180.245 634.077 C 183.652 637.403,184.866 638.360,185.445 638.171 C 186.004 637.988,186.059 638.025,185.657 638.312 C 184.945 638.821,185.690 639.294,186.633 638.932 C 187.186 638.720,187.281 638.812,187.072 639.357 C 186.858 639.914,186.964 640.002,187.603 639.799 C 188.041 639.660,188.400 639.723,188.400 639.940 C 188.400 640.156,188.220 640.393,188.000 640.467 C 187.660 640.580,190.427 644.000,190.858 644.000 C 190.941 644.000,193.324 646.255,196.155 649.011 C 200.317 653.062,201.465 653.976,202.151 653.785 C 202.795 653.605,202.861 653.644,202.423 653.945 C 201.957 654.266,202.218 654.675,203.776 656.071 C 204.837 657.022,206.313 658.392,207.055 659.116 L 208.405 660.432 212.403 660.369 C 214.601 660.335,216.400 660.185,216.400 660.036 C 216.400 659.888,218.664 657.434,221.432 654.583 C 225.773 650.111,229.691 645.938,232.307 643.000 C 232.699 642.560,235.500 639.611,238.532 636.447 C 241.988 632.841,243.964 630.482,243.827 630.126 C 243.707 629.814,243.786 629.668,244.002 629.801 C 244.217 629.934,245.340 629.033,246.497 627.799 C 247.654 626.564,250.400 623.714,252.600 621.465 C 254.800 619.216,257.972 615.852,259.649 613.988 C 261.325 612.125,263.845 609.418,265.249 607.973 C 271.006 602.044,271.041 602.000,270.397 601.546 C 269.914 601.205,269.947 601.173,270.569 601.376 C 271.269 601.605,274.400 599.167,274.400 598.393 C 274.400 598.258,276.302 596.180,278.626 593.774 C 285.772 586.378,286.499 585.513,285.919 585.109 C 285.581 584.874,285.728 584.840,286.339 585.013 C 287.171 585.249,287.252 585.171,287.043 584.339 C 286.913 583.823,286.911 583.625,287.037 583.900 C 287.519 584.949,288.096 584.381,287.851 583.100 C 287.697 582.300,287.735 582.008,287.950 582.342 C 288.386 583.019,289.799 582.186,291.310 580.362 C 291.858 579.700,294.236 577.175,296.596 574.749 C 298.955 572.324,301.751 569.318,302.808 568.070 C 303.866 566.821,307.182 563.289,310.178 560.219 C 313.173 557.150,315.537 554.414,315.432 554.139 C 315.322 553.853,315.461 553.725,315.757 553.839 C 316.041 553.948,316.908 553.264,317.683 552.318 C 318.459 551.373,320.872 548.780,323.047 546.555 C 325.221 544.330,328.222 541.180,329.715 539.555 C 334.655 534.177,335.366 533.418,339.731 528.860 C 342.531 525.937,343.982 524.130,343.836 523.748 C 343.702 523.401,343.780 523.264,344.024 523.415 C 344.253 523.556,345.945 522.080,347.786 520.136 C 349.627 518.191,352.858 514.827,354.966 512.659 C 358.896 508.620,359.163 508.233,358.300 507.837 C 358.025 507.711,358.180 507.700,358.644 507.813 C 359.281 507.968,359.835 507.599,360.903 506.309 C 361.681 505.369,364.409 502.444,366.967 499.809 C 369.524 497.174,371.532 494.799,371.428 494.530 C 371.310 494.221,371.472 494.129,371.867 494.281 C 372.366 494.473,372.438 494.328,372.220 493.561 C 372.012 492.827,372.046 492.742,372.363 493.200 C 372.705 493.693,373.227 493.300,375.285 491.000 C 376.663 489.460,379.682 486.246,381.995 483.857 C 384.308 481.468,386.424 479.277,386.699 478.987 C 386.973 478.697,387.091 478.131,386.961 477.730 C 386.765 477.124,386.797 477.102,387.151 477.600 C 387.520 478.120,387.654 478.093,388.150 477.400 C 388.767 476.538,390.435 474.755,396.209 468.781 L 399.901 464.963 399.967 461.083 L 400.032 457.202 337.316 457.100 L 274.600 456.997 337.300 456.899 C 378.768 456.833,400.000 456.665,400.000 456.400 C 400.000 456.135,379.188 455.977,338.500 455.932 C 304.675 455.894,276.730 455.823,276.400 455.774 C 276.070 455.725,275.575 455.666,275.300 455.643 C 274.901 455.609,274.800 409.751,274.800 227.800 L 274.800 0.000 213.400 -0.000 L 152.001 -0.000 151.900 228.100 L 151.799 456.200 151.700 228.100 C 151.611 25.714,151.532 -0.000,151.000 -0.000 C 150.468 -0.000,150.389 25.692,150.300 227.900 " stroke="none" fill="#000000" fill-rule="evenodd"></path><path id="path2" d="M150.300 227.900 L 150.200 455.800 75.100 455.901 C 25.630 455.968,0.000 456.138,0.000 456.400 C 0.000 456.662,25.698 456.833,75.300 456.900 L 150.600 457.002 75.288 457.101 L -0.025 457.200 0.031 461.131 C 0.091 465.406,0.588 466.336,2.525 465.793 C 3.214 465.600,3.272 465.637,2.800 465.965 C 2.101 466.452,13.817 478.144,14.680 477.821 C 14.983 477.707,15.068 477.879,14.910 478.290 C 14.726 478.770,14.830 478.874,15.310 478.690 C 15.783 478.508,15.894 478.611,15.719 479.067 C 15.527 479.566,15.672 479.638,16.439 479.420 C 17.106 479.231,17.231 479.264,16.849 479.529 C 16.220 479.964,16.576 480.800,17.390 480.800 C 17.689 480.800,18.014 480.575,18.112 480.300 C 18.210 480.025,18.445 479.945,18.634 480.122 C 18.822 480.299,18.712 480.615,18.388 480.824 C 17.919 481.128,18.478 481.847,21.145 484.373 C 22.985 486.115,25.903 488.919,27.629 490.604 C 29.356 492.289,30.953 493.553,31.179 493.413 C 31.430 493.258,31.491 493.419,31.335 493.825 C 31.125 494.372,31.252 494.443,32.039 494.220 C 32.694 494.034,32.827 494.067,32.457 494.324 C 31.693 494.854,32.557 495.322,33.704 495.000 C 34.342 494.820,34.441 494.858,34.047 495.130 C 33.303 495.645,33.647 496.076,38.604 500.840 C 46.301 508.236,46.057 508.034,46.957 507.783 C 47.639 507.592,47.685 507.630,47.200 507.981 C 46.406 508.556,47.673 509.597,49.176 509.606 C 49.984 509.611,50.074 509.694,49.600 510.000 C 48.891 510.459,60.629 522.151,61.473 521.827 C 61.779 521.710,61.870 521.873,61.719 522.267 C 61.529 522.762,61.680 522.842,62.439 522.650 C 62.968 522.516,63.175 522.511,62.900 522.637 C 61.927 523.084,62.417 523.577,63.600 523.340 C 64.772 523.106,65.357 523.751,64.300 524.112 C 64.025 524.206,64.205 524.216,64.700 524.134 C 65.644 523.977,65.963 524.601,65.100 524.916 C 64.814 525.021,66.826 527.270,69.800 530.170 C 77.560 537.738,77.626 537.794,78.071 537.151 C 78.341 536.761,78.379 536.863,78.199 537.500 C 78.060 537.995,78.120 538.400,78.332 538.400 C 78.544 538.400,81.236 540.837,84.314 543.815 C 91.287 550.562,92.084 551.248,92.680 551.023 C 92.947 550.921,93.071 551.069,92.961 551.357 C 92.852 551.641,93.536 552.510,94.482 553.289 C 95.427 554.068,98.790 557.256,101.955 560.374 C 105.267 563.637,107.933 565.958,108.235 565.842 C 108.580 565.710,108.677 565.855,108.519 566.267 C 108.333 566.752,108.464 566.833,109.107 566.629 C 109.744 566.427,110.000 566.578,110.214 567.283 C 110.462 568.101,113.173 570.897,120.123 577.500 C 121.699 578.998,122.544 579.532,123.067 579.363 C 123.670 579.167,123.694 579.199,123.203 579.546 C 122.718 579.888,122.702 580.062,123.120 580.480 C 123.538 580.898,123.710 580.882,124.043 580.397 C 124.358 579.937,124.394 580.007,124.199 580.700 C 124.015 581.354,124.115 581.600,124.563 581.600 C 124.903 581.600,125.770 582.249,126.490 583.042 C 131.366 588.409,138.811 595.276,139.480 595.023 C 139.743 594.923,139.876 595.059,139.773 595.326 C 139.671 595.593,140.535 596.660,141.694 597.699 C 142.852 598.738,146.219 601.936,149.175 604.808 C 152.131 607.679,154.777 609.941,155.055 609.834 C 155.383 609.709,155.473 609.865,155.314 610.280 C 155.111 610.809,155.270 610.873,156.234 610.648 C 157.095 610.447,157.243 610.483,156.800 610.787 C 155.913 611.395,168.618 623.696,169.796 623.370 C 170.438 623.193,170.480 623.230,170.003 623.557 C 169.500 623.903,169.492 624.047,169.953 624.483 C 170.386 624.893,170.538 624.896,170.683 624.500 C 170.784 624.225,171.068 624.000,171.313 624.000 C 171.624 624.000,171.614 624.146,171.280 624.480 C 170.473 625.287,170.742 625.700,171.900 625.431 C 172.729 625.239,172.852 625.278,172.400 625.591 C 171.902 625.935,172.140 626.323,173.800 627.871 C 174.900 628.898,177.800 631.690,180.245 634.077 C 183.652 637.403,184.866 638.360,185.445 638.171 C 186.004 637.988,186.059 638.025,185.657 638.312 C 184.945 638.821,185.690 639.294,186.633 638.932 C 187.186 638.720,187.281 638.812,187.072 639.357 C 186.858 639.914,186.964 640.002,187.603 639.799 C 188.041 639.660,188.400 639.723,188.400 639.940 C 188.400 640.156,188.220 640.393,188.000 640.467 C 187.660 640.580,190.427 644.000,190.858 644.000 C 190.941 644.000,193.324 646.255,196.155 649.011 C 200.317 653.062,201.465 653.976,202.151 653.785 C 202.795 653.605,202.861 653.644,202.423 653.945 C 201.957 654.266,202.218 654.675,203.776 656.071 C 204.837 657.022,206.313 658.392,207.055 659.116 L 208.405 660.432 212.403 660.369 C 214.601 660.335,216.400 660.185,216.400 660.036 C 216.400 659.888,218.664 657.434,221.432 654.583 C 225.773 650.111,229.691 645.938,232.307 643.000 C 232.699 642.560,235.500 639.611,238.532 636.447 C 241.988 632.841,243.964 630.482,243.827 630.126 C 243.707 629.814,243.786 629.668,244.002 629.801 C 244.217 629.934,245.340 629.033,246.497 627.799 C 247.654 626.564,250.400 623.714,252.600 621.465 C 254.800 619.216,257.972 615.852,259.649 613.988 C 261.325 612.125,263.845 609.418,265.249 607.973 C 271.006 602.044,271.041 602.000,270.397 601.546 C 269.914 601.205,269.947 601.173,270.569 601.376 C 271.269 601.605,274.400 599.167,274.400 598.393 C 274.400 598.258,276.302 596.180,278.626 593.774 C 285.772 586.378,286.499 585.513,285.919 585.109 C 285.581 584.874,285.728 584.840,286.339 585.013 C 287.171 585.249,287.252 585.171,287.043 584.339 C 286.913 583.823,286.911 583.625,287.037 583.900 C 287.519 584.949,288.096 584.381,287.851 583.100 C 287.697 582.300,287.735 582.008,287.950 582.342 C 288.386 583.019,289.799 582.186,291.310 580.362 C 291.858 579.700,294.236 577.175,296.596 574.749 C 298.955 572.324,301.751 569.318,302.808 568.070 C 303.866 566.821,307.182 563.289,310.178 560.219 C 313.173 557.150,315.537 554.414,315.432 554.139 C 315.322 553.853,315.461 553.725,315.757 553.839 C 316.041 553.948,316.908 553.264,317.683 552.318 C 318.459 551.373,320.872 548.780,323.047 546.555 C 325.221 544.330,328.222 541.180,329.715 539.555 C 334.655 534.177,335.366 533.418,339.731 528.860 C 342.531 525.937,343.982 524.130,343.836 523.748 C 343.702 523.401,343.780 523.264,344.024 523.415 C 344.253 523.556,345.945 522.080,347.786 520.136 C 349.627 518.191,352.858 514.827,354.966 512.659 C 358.896 508.620,359.163 508.233,358.300 507.837 C 358.025 507.711,358.180 507.700,358.644 507.813 C 359.281 507.968,359.835 507.599,360.903 506.309 C 361.681 505.369,364.409 502.444,366.967 499.809 C 369.524 497.174,371.532 494.799,371.428 494.530 C 371.310 494.221,371.472 494.129,371.867 494.281 C 372.366 494.473,372.438 494.328,372.220 493.561 C 372.012 492.827,372.046 492.742,372.363 493.200 C 372.705 493.693,373.227 493.300,375.285 491.000 C 376.663 489.460,379.682 486.246,381.995 483.857 C 384.308 481.468,386.424 479.277,386.699 478.987 C 386.973 478.697,387.091 478.131,386.961 477.730 C 386.765 477.124,386.797 477.102,387.151 477.600 C 387.520 478.120,387.654 478.093,388.150 477.400 C 388.767 476.538,390.435 474.755,396.209 468.781 L 399.901 464.963 399.967 461.083 L 400.032 457.202 337.316 457.100 L 274.600 456.997 337.300 456.899 C 378.768 456.833,400.000 456.665,400.000 456.400 C 400.000 456.135,379.188 455.977,338.500 455.932 C 304.675 455.894,276.730 455.823,276.400 455.774 C 276.070 455.725,275.575 455.666,275.300 455.643 C 274.901 455.609,274.800 409.751,274.800 227.800 L 274.800 0.000 213.400 -0.000 L 152.001 -0.000 151.900 228.100 L 151.799 456.200 151.700 228.100 C 151.611 25.714,151.532 -0.000,151.000 -0.000 C 150.468 -0.000,150.389 25.692,150.300 227.900 " stroke="none" fill="#000000" fill-rule="evenodd"></path><path id="path3" d="M150.300 227.900 L 150.200 455.800 75.100 455.901 C 25.630 455.968,0.000 456.138,0.000 456.400 C 0.000 456.662,25.698 456.833,75.300 456.900 L 150.600 457.002 75.288 457.101 L -0.025 457.200 0.031 461.131 C 0.091 465.406,0.588 466.336,2.525 465.793 C 3.214 465.600,3.272 465.637,2.800 465.965 C 2.101 466.452,13.817 478.144,14.680 477.821 C 14.983 477.707,15.068 477.879,14.910 478.290 C 14.726 478.770,14.830 478.874,15.310 478.690 C 15.783 478.508,15.894 478.611,15.719 479.067 C 15.527 479.566,15.672 479.638,16.439 479.420 C 17.106 479.231,17.231 479.264,16.849 479.529 C 16.220 479.964,16.576 480.800,17.390 480.800 C 17.689 480.800,18.014 480.575,18.112 480.300 C 18.210 480.025,18.445 479.945,18.634 480.122 C 18.822 480.299,18.712 480.615,18.388 480.824 C 17.919 481.128,18.478 481.847,21.145 484.373 C 22.985 486.115,25.903 488.919,27.629 490.604 C 29.356 492.289,30.953 493.553,31.179 493.413 C 31.430 493.258,31.491 493.419,31.335 493.825 C 31.125 494.372,31.252 494.443,32.039 494.220 C 32.694 494.034,32.827 494.067,32.457 494.324 C 31.693 494.854,32.557 495.322,33.704 495.000 C 34.342 494.820,34.441 494.858,34.047 495.130 C 33.303 495.645,33.647 496.076,38.604 500.840 C 46.301 508.236,46.057 508.034,46.957 507.783 C 47.639 507.592,47.685 507.630,47.200 507.981 C 46.406 508.556,47.673 509.597,49.176 509.606 C 49.984 509.611,50.074 509.694,49.600 510.000 C 48.891 510.459,60.629 522.151,61.473 521.827 C 61.779 521.710,61.870 521.873,61.719 522.267 C 61.529 522.762,61.680 522.842,62.439 522.650 C 62.968 522.516,63.175 522.511,62.900 522.637 C 61.927 523.084,62.417 523.577,63.600 523.340 C 64.772 523.106,65.357 523.751,64.300 524.112 C 64.025 524.206,64.205 524.216,64.700 524.134 C 65.644 523.977,65.963 524.601,65.100 524.916 C 64.814 525.021,66.826 527.270,69.800 530.170 C 77.560 537.738,77.626 537.794,78.071 537.151 C 78.341 536.761,78.379 536.863,78.199 537.500 C 78.060 537.995,78.120 538.400,78.332 538.400 C 78.544 538.400,81.236 540.837,84.314 543.815 C 91.287 550.562,92.084 551.248,92.680 551.023 C 92.947 550.921,93.071 551.069,92.961 551.357 C 92.852 551.641,93.536 552.510,94.482 553.289 C 95.427 554.068,98.790 557.256,101.955 560.374 C 105.267 563.637,107.933 565.958,108.235 565.842 C 108.580 565.710,108.677 565.855,108.519 566.267 C 108.333 566.752,108.464 566.833,109.107 566.629 C 109.744 566.427,110.000 566.578,110.214 567.283 C 110.462 568.101,113.173 570.897,120.123 577.500 C 121.699 578.998,122.544 579.532,123.067 579.363 C 123.670 579.167,123.694 579.199,123.203 579.546 C 122.718 579.888,122.702 580.062,123.120 580.480 C 123.538 580.898,123.710 580.882,124.043 580.397 C 124.358 579.937,124.394 580.007,124.199 580.700 C 124.015 581.354,124.115 581.600,124.563 581.600 C 124.903 581.600,125.770 582.249,126.490 583.042 C 131.366 588.409,138.811 595.276,139.480 595.023 C 139.743 594.923,139.876 595.059,139.773 595.326 C 139.671 595.593,140.535 596.660,141.694 597.699 C 142.852 598.738,146.219 601.936,149.175 604.808 C 152.131 607.679,154.777 609.941,155.055 609.834 C 155.383 609.709,155.473 609.865,155.314 610.280 C 155.111 610.809,155.270 610.873,156.234 610.648 C 157.095 610.447,157.243 610.483,156.800 610.787 C 155.913 611.395,168.618 623.696,169.796 623.370 C 170.438 623.193,170.480 623.230,170.003 623.557 C 169.500 623.903,169.492 624.047,169.953 624.483 C 170.386 624.893,170.538 624.896,170.683 624.500 C 170.784 624.225,171.068 624.000,171.313 624.000 C 171.624 624.000,171.614 624.146,171.280 624.480 C 170.473 625.287,170.742 625.700,171.900 625.431 C 172.729 625.239,172.852 625.278,172.400 625.591 C 171.902 625.935,172.140 626.323,173.800 627.871 C 174.900 628.898,177.800 631.690,180.245 634.077 C 183.652 637.403,184.866 638.360,185.445 638.171 C 186.004 637.988,186.059 638.025,185.657 638.312 C 184.945 638.821,185.690 639.294,186.633 638.932 C 187.186 638.720,187.281 638.812,187.072 639.357 C 186.858 639.914,186.964 640.002,187.603 639.799 C 188.041 639.660,188.400 639.723,188.400 639.940 C 188.400 640.156,188.220 640.393,188.000 640.467 C 187.660 640.580,190.427 644.000,190.858 644.000 C 190.941 644.000,193.324 646.255,196.155 649.011 C 200.317 653.062,201.465 653.976,202.151 653.785 C 202.795 653.605,202.861 653.644,202.423 653.945 C 201.957 654.266,202.218 654.675,203.776 656.071 C 204.837 657.022,206.313 658.392,207.055 659.116 L 208.405 660.432 212.403 660.369 C 214.601 660.335,216.400 660.185,216.400 660.036 C 216.400 659.888,218.664 657.434,221.432 654.583 C 225.773 650.111,229.691 645.938,232.307 643.000 C 232.699 642.560,235.500 639.611,238.532 636.447 C 241.988 632.841,243.964 630.482,243.827 630.126 C 243.707 629.814,243.786 629.668,244.002 629.801 C 244.217 629.934,245.340 629.033,246.497 627.799 C 247.654 626.564,250.400 623.714,252.600 621.465 C 254.800 619.216,257.972 615.852,259.649 613.988 C 261.325 612.125,263.845 609.418,265.249 607.973 C 271.006 602.044,271.041 602.000,270.397 601.546 C 269.914 601.205,269.947 601.173,270.569 601.376 C 271.269 601.605,274.400 599.167,274.400 598.393 C 274.400 598.258,276.302 596.180,278.626 593.774 C 285.772 586.378,286.499 585.513,285.919 585.109 C 285.581 584.874,285.728 584.840,286.339 585.013 C 287.171 585.249,287.252 585.171,287.043 584.339 C 286.913 583.823,286.911 583.625,287.037 583.900 C 287.519 584.949,288.096 584.381,287.851 583.100 C 287.697 582.300,287.735 582.008,287.950 582.342 C 288.386 583.019,289.799 582.186,291.310 580.362 C 291.858 579.700,294.236 577.175,296.596 574.749 C 298.955 572.324,301.751 569.318,302.808 568.070 C 303.866 566.821,307.182 563.289,310.178 560.219 C 313.173 557.150,315.537 554.414,315.432 554.139 C 315.322 553.853,315.461 553.725,315.757 553.839 C 316.041 553.948,316.908 553.264,317.683 552.318 C 318.459 551.373,320.872 548.780,323.047 546.555 C 325.221 544.330,328.222 541.180,329.715 539.555 C 334.655 534.177,335.366 533.418,339.731 528.860 C 342.531 525.937,343.982 524.130,343.836 523.748 C 343.702 523.401,343.780 523.264,344.024 523.415 C 344.253 523.556,345.945 522.080,347.786 520.136 C 349.627 518.191,352.858 514.827,354.966 512.659 C 358.896 508.620,359.163 508.233,358.300 507.837 C 358.025 507.711,358.180 507.700,358.644 507.813 C 359.281 507.968,359.835 507.599,360.903 506.309 C 361.681 505.369,364.409 502.444,366.967 499.809 C 369.524 497.174,371.532 494.799,371.428 494.530 C 371.310 494.221,371.472 494.129,371.867 494.281 C 372.366 494.473,372.438 494.328,372.220 493.561 C 372.012 492.827,372.046 492.742,372.363 493.200 C 372.705 493.693,373.227 493.300,375.285 491.000 C 376.663 489.460,379.682 486.246,381.995 483.857 C 384.308 481.468,386.424 479.277,386.699 478.987 C 386.973 478.697,387.091 478.131,386.961 477.730 C 386.765 477.124,386.797 477.102,387.151 477.600 C 387.520 478.120,387.654 478.093,388.150 477.400 C 388.767 476.538,390.435 474.755,396.209 468.781 L 399.901 464.963 399.967 461.083 L 400.032 457.202 337.316 457.100 L 274.600 456.997 337.300 456.899 C 378.768 456.833,400.000 456.665,400.000 456.400 C 400.000 456.135,379.188 455.977,338.500 455.932 C 304.675 455.894,276.730 455.823,276.400 455.774 C 276.070 455.725,275.575 455.666,275.300 455.643 C 274.901 455.609,274.800 409.751,274.800 227.800 L 274.800 0.000 213.400 -0.000 L 152.001 -0.000 151.900 228.100 L 151.799 456.200 151.700 228.100 C 151.611 25.714,151.532 -0.000,151.000 -0.000 C 150.468 -0.000,150.389 25.692,150.300 227.900 " stroke="none" fill="#000000" fill-rule="evenodd"></path><path id="path4" d="M150.300 227.900 L 150.200 455.800 75.100 455.901 C 25.630 455.968,0.000 456.138,0.000 456.400 C 0.000 456.662,25.698 456.833,75.300 456.900 L 150.600 457.002 75.288 457.101 L -0.025 457.200 0.031 461.131 C 0.091 465.406,0.588 466.336,2.525 465.793 C 3.214 465.600,3.272 465.637,2.800 465.965 C 2.101 466.452,13.817 478.144,14.680 477.821 C 14.983 477.707,15.068 477.879,14.910 478.290 C 14.726 478.770,14.830 478.874,15.310 478.690 C 15.783 478.508,15.894 478.611,15.719 479.067 C 15.527 479.566,15.672 479.638,16.439 479.420 C 17.106 479.231,17.231 479.264,16.849 479.529 C 16.220 479.964,16.576 480.800,17.390 480.800 C 17.689 480.800,18.014 480.575,18.112 480.300 C 18.210 480.025,18.445 479.945,18.634 480.122 C 18.822 480.299,18.712 480.615,18.388 480.824 C 17.919 481.128,18.478 481.847,21.145 484.373 C 22.985 486.115,25.903 488.919,27.629 490.604 C 29.356 492.289,30.953 493.553,31.179 493.413 C 31.430 493.258,31.491 493.419,31.335 493.825 C 31.125 494.372,31.252 494.443,32.039 494.220 C 32.694 494.034,32.827 494.067,32.457 494.324 C 31.693 494.854,32.557 495.322,33.704 495.000 C 34.342 494.820,34.441 494.858,34.047 495.130 C 33.303 495.645,33.647 496.076,38.604 500.840 C 46.301 508.236,46.057 508.034,46.957 507.783 C 47.639 507.592,47.685 507.630,47.200 507.981 C 46.406 508.556,47.673 509.597,49.176 509.606 C 49.984 509.611,50.074 509.694,49.600 510.000 C 48.891 510.459,60.629 522.151,61.473 521.827 C 61.779 521.710,61.870 521.873,61.719 522.267 C 61.529 522.762,61.680 522.842,62.439 522.650 C 62.968 522.516,63.175 522.511,62.900 522.637 C 61.927 523.084,62.417 523.577,63.600 523.340 C 64.772 523.106,65.357 523.751,64.300 524.112 C 64.025 524.206,64.205 524.216,64.700 524.134 C 65.644 523.977,65.963 524.601,65.100 524.916 C 64.814 525.021,66.826 527.270,69.800 530.170 C 77.560 537.738,77.626 537.794,78.071 537.151 C 78.341 536.761,78.379 536.863,78.199 537.500 C 78.060 537.995,78.120 538.400,78.332 538.400 C 78.544 538.400,81.236 540.837,84.314 543.815 C 91.287 550.562,92.084 551.248,92.680 551.023 C 92.947 550.921,93.071 551.069,92.961 551.357 C 92.852 551.641,93.536 552.510,94.482 553.289 C 95.427 554.068,98.790 557.256,101.955 560.374 C 105.267 563.637,107.933 565.958,108.235 565.842 C 108.580 565.710,108.677 565.855,108.519 566.267 C 108.333 566.752,108.464 566.833,109.107 566.629 C 109.744 566.427,110.000 566.578,110.214 567.283 C 110.462 568.101,113.173 570.897,120.123 577.500 C 121.699 578.998,122.544 579.532,123.067 579.363 C 123.670 579.167,123.694 579.199,123.203 579.546 C 122.718 579.888,122.702 580.062,123.120 580.480 C 123.538 580.898,123.710 580.882,124.043 580.397 C 124.358 579.937,124.394 580.007,124.199 580.700 C 124.015 581.354,124.115 581.600,124.563 581.600 C 124.903 581.600,125.770 582.249,126.490 583.042 C 131.366 588.409,138.811 595.276,139.480 595.023 C 139.743 594.923,139.876 595.059,139.773 595.326 C 139.671 595.593,140.535 596.660,141.694 597.699 C 142.852 598.738,146.219 601.936,149.175 604.808 C 152.131 607.679,154.777 609.941,155.055 609.834 C 155.383 609.709,155.473 609.865,155.314 610.280 C 155.111 610.809,155.270 610.873,156.234 610.648 C 157.095 610.447,157.243 610.483,156.800 610.787 C 155.913 611.395,168.618 623.696,169.796 623.370 C 170.438 623.193,170.480 623.230,170.003 623.557 C 169.500 623.903,169.492 624.047,169.953 624.483 C 170.386 624.893,170.538 624.896,170.683 624.500 C 170.784 624.225,171.068 624.000,171.313 624.000 C 171.624 624.000,171.614 624.146,171.280 624.480 C 170.473 625.287,170.742 625.700,171.900 625.431 C 172.729 625.239,172.852 625.278,172.400 625.591 C 171.902 625.935,172.140 626.323,173.800 627.871 C 174.900 628.898,177.800 631.690,180.245 634.077 C 183.652 637.403,184.866 638.360,185.445 638.171 C 186.004 637.988,186.059 638.025,185.657 638.312 C 184.945 638.821,185.690 639.294,186.633 638.932 C 187.186 638.720,187.281 638.812,187.072 639.357 C 186.858 639.914,186.964 640.002,187.603 639.799 C 188.041 639.660,188.400 639.723,188.400 639.940 C 188.400 640.156,188.220 640.393,188.000 640.467 C 187.660 640.580,190.427 644.000,190.858 644.000 C 190.941 644.000,193.324 646.255,196.155 649.011 C 200.317 653.062,201.465 653.976,202.151 653.785 C 202.795 653.605,202.861 653.644,202.423 653.945 C 201.957 654.266,202.218 654.675,203.776 656.071 C 204.837 657.022,206.313 658.392,207.055 659.116 L 208.405 660.432 212.403 660.369 C 214.601 660.335,216.400 660.185,216.400 660.036 C 216.400 659.888,218.664 657.434,221.432 654.583 C 225.773 650.111,229.691 645.938,232.307 643.000 C 232.699 642.560,235.500 639.611,238.532 636.447 C 241.988 632.841,243.964 630.482,243.827 630.126 C 243.707 629.814,243.786 629.668,244.002 629.801 C 244.217 629.934,245.340 629.033,246.497 627.799 C 247.654 626.564,250.400 623.714,252.600 621.465 C 254.800 619.216,257.972 615.852,259.649 613.988 C 261.325 612.125,263.845 609.418,265.249 607.973 C 271.006 602.044,271.041 602.000,270.397 601.546 C 269.914 601.205,269.947 601.173,270.569 601.376 C 271.269 601.605,274.400 599.167,274.400 598.393 C 274.400 598.258,276.302 596.180,278.626 593.774 C 285.772 586.378,286.499 585.513,285.919 585.109 C 285.581 584.874,285.728 584.840,286.339 585.013 C 287.171 585.249,287.252 585.171,287.043 584.339 C 286.913 583.823,286.911 583.625,287.037 583.900 C 287.519 584.949,288.096 584.381,287.851 583.100 C 287.697 582.300,287.735 582.008,287.950 582.342 C 288.386 583.019,289.799 582.186,291.310 580.362 C 291.858 579.700,294.236 577.175,296.596 574.749 C 298.955 572.324,301.751 569.318,302.808 568.070 C 303.866 566.821,307.182 563.289,310.178 560.219 C 313.173 557.150,315.537 554.414,315.432 554.139 C 315.322 553.853,315.461 553.725,315.757 553.839 C 316.041 553.948,316.908 553.264,317.683 552.318 C 318.459 551.373,320.872 548.780,323.047 546.555 C 325.221 544.330,328.222 541.180,329.715 539.555 C 334.655 534.177,335.366 533.418,339.731 528.860 C 342.531 525.937,343.982 524.130,343.836 523.748 C 343.702 523.401,343.780 523.264,344.024 523.415 C 344.253 523.556,345.945 522.080,347.786 520.136 C 349.627 518.191,352.858 514.827,354.966 512.659 C 358.896 508.620,359.163 508.233,358.300 507.837 C 358.025 507.711,358.180 507.700,358.644 507.813 C 359.281 507.968,359.835 507.599,360.903 506.309 C 361.681 505.369,364.409 502.444,366.967 499.809 C 369.524 497.174,371.532 494.799,371.428 494.530 C 371.310 494.221,371.472 494.129,371.867 494.281 C 372.366 494.473,372.438 494.328,372.220 493.561 C 372.012 492.827,372.046 492.742,372.363 493.200 C 372.705 493.693,373.227 493.300,375.285 491.000 C 376.663 489.460,379.682 486.246,381.995 483.857 C 384.308 481.468,386.424 479.277,386.699 478.987 C 386.973 478.697,387.091 478.131,386.961 477.730 C 386.765 477.124,386.797 477.102,387.151 477.600 C 387.520 478.120,387.654 478.093,388.150 477.400 C 388.767 476.538,390.435 474.755,396.209 468.781 L 399.901 464.963 399.967 461.083 L 400.032 457.202 337.316 457.100 L 274.600 456.997 337.300 456.899 C 378.768 456.833,400.000 456.665,400.000 456.400 C 400.000 456.135,379.188 455.977,338.500 455.932 C 304.675 455.894,276.730 455.823,276.400 455.774 C 276.070 455.725,275.575 455.666,275.300 455.643 C 274.901 455.609,274.800 409.751,274.800 227.800 L 274.800 0.000 213.400 -0.000 L 152.001 -0.000 151.900 228.100 L 151.799 456.200 151.700 228.100 C 151.611 25.714,151.532 -0.000,151.000 -0.000 C 150.468 -0.000,150.389 25.692,150.300 227.900 " stroke="none" fill="#000000" fill-rule="evenodd"></path></g></svg>